<?xml version="1.0" ?><svg id="Layer_1" style="enable-background:new 0 0 64 64;" version="1.1" viewBox="0 0 64 64" xml:space="preserve" xmlns="http://www.w3.org/2000/svg" xmlns:xlink="http://www.w3.org/1999/xlink"><style type="text/css">
	.st0{fill:#CCE490;}
	.st1{fill:#00D631;}
	.st2{fill:#FFFFFF;}
	.st3{fill-rule:evenodd;clip-rule:evenodd;fill:#314A52;}
</style><g id="Cash_App"><path class="st0" d="M3,15C3,8.4,8.4,3,15,3h34c6.6,0,12,5.4,12,12v34c0,6.6-5.4,12-12,12H15C8.4,61,3,55.6,3,49V15z"/><path class="st1" d="M22,0C15.9,0,11.9,0.1,8.7,1.7c-3,1.5-5.5,4-7,7c-0.9,1.8-1.3,3.8-1.5,6.3C0,17.5,0,20.5,0,24.3v15.4   c0,3.8,0,6.9,0.2,9.3c0.2,2.5,0.6,4.5,1.5,6.3c1.5,3,4,5.5,7,7c1.8,0.9,3.8,1.3,6.3,1.5c2.4,0.2,5.4,0.2,9.3,0.2h15.3   c2.5,0,4.7,0,6.5-0.1L46.1,61H54l7-7V20h-1c0,12.2-7.7,22.8-19,28.2c-3.5,2.3-9.8,3.8-17,3.8c-10.8,0-19.5-3.4-20-7.7   c0-1.4,0-2.9,0-4.7V24.4c0-4,0-6.8,0.2-9c0.2-2.2,0.5-3.6,1.1-4.8c1.2-2.3,3-4.1,5.2-5.2C12.7,4.2,15.6,4,22,4L22,0z"/><path class="st2" d="M35,29c5,2,9,3.5,9,9c0,5.1-5.1,9.3-12.2,9.9l-0.5,2.5c-0.2,0.9-1,1.6-2,1.6h-4c-0.7,0-1.4-0.6-1.4-1.4   c0-0.1,0-0.2,0-0.3l0.8-3.4c-2.9-1.1-5.4-2.9-6.7-4.3c-0.3-0.4-0.3-0.9,0-1.3l2.8-2.8c0.3-0.3,0.9-0.4,1.3-0.1   c1.6,1.1,5.7,3.5,8.8,3.5c1.5,0,5-0.5,5-3.5c0-4.5-15-4-15-13c0-5.5,4.3-8.9,11.2-9.4l0.6-2.5c0.2-0.9,1-1.5,1.9-1.5h3.9   c0.7,0,1.4,0.6,1.4,1.4c0,0.1,0,0.2,0,0.3l-0.7,3.2c3.1,1,5.4,2.7,6.6,4c0.4,0.4,0.3,0.9,0,1.3l-2.7,2.7c-0.4,0.4-1,0.4-1.4,0.1   C40.1,23.7,37.1,22,34,22c-4,0-5,1-5,2.5S30.4,27.2,35,29z"/><path class="st3" d="M48.6,4.2C46.4,4,43.6,4,39.6,4H24.4c-1.6,0-3.1,0-4.4,0l0-4c1.3,0,2.8,0,4.4,0h15.3c3.8,0,6.9,0,9.3,0.2   c2.5,0.2,4.5,0.6,6.3,1.5c3,1.5,5.5,4,7,7c0.9,1.8,1.3,3.8,1.5,6.3c0.2,2.4,0.2,5.4,0.2,9.3v15.4c0,3.8,0,6.9-0.2,9.3   c-0.2,2.5-0.6,4.5-1.5,6.3c-1.5,3-4,5.5-7,7C52.4,63.7,49,63.9,44,64l0-4c5.1-0.1,7.6-0.3,9.5-1.3c2.3-1.2,4.1-3,5.2-5.2   c0.6-1.2,0.9-2.6,1.1-4.8c0.2-2.2,0.2-5.1,0.2-9V24.4c0-4,0-6.8-0.2-9c-0.2-2.2-0.5-3.6-1.1-4.8c-1.2-2.3-3-4.1-5.2-5.2   C52.3,4.7,50.8,4.4,48.6,4.2z"/></g></svg>