<?xml version="1.0" encoding="utf-8"?>
<!-- Generator: Adobe Illustrator 22.1.0, SVG Export Plug-In . SVG Version: 6.00 Build 0)  -->
<svg version="1.1" id="Layer_1" xmlns="http://www.w3.org/2000/svg" xmlns:xlink="http://www.w3.org/1999/xlink" x="0px" y="0px"
	 viewBox="0 0 32 32" style="enable-background:new 0 0 32 32;" xml:space="preserve">
<style type="text/css">
	.st0{fill:#00B14F;}
	.st1{fill:#FFFFFF;}
	.st2{fill:none;}
</style>
<rect class="st0" width="32" height="32"/>
<g>
	<g>
		<path class="st1" d="M8,15.7v0.5c0,2.5,0.9,4.8,2.7,6.5c1.7,1.7,4,2.7,6.4,2.7c2,0,3.7-0.4,5.2-1.3c1.2-0.7,1.7-1.5,1.8-1.5v-7.7
			h-7.3v1.4h5.9v5.8l0,0c-0.7,0.7-2.3,1.8-5.5,1.8c-2.1,0-4-0.8-5.5-2.2c-1.4-1.4-2.2-3.4-2.2-5.5v-0.5c0-2,0.9-4,2.5-5.4
			C13.4,8.8,15.5,8,17.7,8c2,0,3.4,0.3,4.6,1V7.4c-1.2-0.5-2.6-0.7-4.6-0.7C12.4,6.6,8,10.8,8,15.7"/>
		<path class="st1" d="M22.3,11.7V10c-1.3-0.7-2.7-1-4.6-1c-1.9,0-3.7,0.7-5.1,2c-1.4,1.3-2.1,3-2.1,4.7v0.5c0,3.7,3,6.7,6.6,6.7
			c3,0,4.2-1,4.5-1.3v-4.3h-4.8v1.4h3.5v2.2l0,0c-0.4,0.2-1.4,0.6-3.1,0.6c-1.4,0-2.7-0.5-3.7-1.5c-1-1-1.5-2.3-1.5-3.7v-0.5
			c0-2.9,2.7-5.3,5.8-5.3C19.9,10.5,21.2,10.8,22.3,11.7"/>
	</g>
	<g>
		<g>
			<path class="st2" d="M-8.1,15.7v0.5c0,2.5,0.9,4.8,2.7,6.5c1.7,1.7,4,2.7,6.4,2.7c2,0,3.7-0.4,5.2-1.3c1.2-0.7,1.7-1.5,1.8-1.5
				v-7.7H0.6v1.4h5.9v5.8l0,0c-0.7,0.7-2.3,1.8-5.5,1.8c-2.1,0-4-0.8-5.5-2.2c-1.4-1.4-2.2-3.4-2.2-5.5v-0.5c0-2,0.9-4,2.5-5.4
				C-2.6,8.8-0.5,8,1.6,8c2,0,3.4,0.3,4.6,1V7.4C5,6.9,3.6,6.6,1.6,6.6C-3.6,6.6-8.1,10.8-8.1,15.7"/>
			<path class="st2" d="M6.2,11.7V10C4.9,9.3,3.5,9,1.6,9c-1.9,0-3.7,0.7-5.1,2c-1.4,1.3-2.1,3-2.1,4.7v0.5c0,3.7,3,6.7,6.6,6.7
				c3,0,4.2-1,4.5-1.3v-4.3H0.6v1.4h3.5v2.2l0,0c-0.4,0.2-1.4,0.6-3.1,0.6c-1.4,0-2.7-0.5-3.7-1.5c-1-1-1.5-2.3-1.5-3.7v-0.5
				c0-2.9,2.7-5.3,5.8-5.3C3.8,10.5,5.1,10.8,6.2,11.7"/>
		</g>
		<g>
			<path class="st2" d="M24,15.7v0.5c0,2.5,0.9,4.8,2.7,6.5c1.7,1.7,4,2.7,6.4,2.7c2,0,3.7-0.4,5.2-1.3c1.2-0.7,1.7-1.5,1.8-1.5
				v-7.7h-7.3v1.4h5.9v5.8l0,0c-0.7,0.7-2.3,1.8-5.5,1.8c-2.1,0-4-0.8-5.5-2.2c-1.4-1.4-2.2-3.4-2.2-5.5v-0.5c0-2,0.9-4,2.5-5.4
				C29.5,8.8,31.6,8,33.8,8c2,0,3.4,0.3,4.6,1V7.4c-1.2-0.5-2.6-0.7-4.6-0.7C28.5,6.6,24,10.8,24,15.7"/>
			<path class="st2" d="M38.3,11.7V10c-1.3-0.7-2.7-1-4.6-1c-1.9,0-3.7,0.7-5.1,2c-1.4,1.3-2.1,3-2.1,4.7v0.5c0,3.7,3,6.7,6.6,6.7
				c3,0,4.2-1,4.5-1.3v-4.3h-4.8v1.4h3.5v2.2l0,0c-0.4,0.2-1.4,0.6-3.1,0.6c-1.4,0-2.7-0.5-3.7-1.5c-1-1-1.5-2.3-1.5-3.7v-0.5
				c0-2.9,2.7-5.3,5.8-5.3C36,10.5,37.2,10.8,38.3,11.7"/>
		</g>
	</g>
</g>
</svg>
