<svg width="2532" height="1000" viewBox="0 0 2532 1000" fill="none" xmlns="http://www.w3.org/2000/svg">
<g clip-path="url(#clip0_3844_146146)">
<path d="M144.885 191.958H0V777.827H144.885V191.958Z" fill="black"/>
<path d="M599.24 225.459C599.24 101.142 498.006 0 373.566 0H0V125.117H355.804C412.119 125.117 458.768 169.36 459.799 223.737C460.314 250.964 450.095 276.661 431.026 296.091C411.949 315.529 386.46 326.24 359.256 326.24H220.653C215.732 326.24 211.726 330.238 211.726 335.159V446.358C211.726 448.25 212.31 450.056 213.41 451.579L448.573 777.826H620.716L385.007 450.687C503.711 444.728 599.24 344.993 599.24 225.459Z" fill="black"/>
<path d="M1436.52 239.07C1436.52 384.588 1334.32 479.013 1178.81 479.013H976.632V777.827H879.992V0.242188H1178.81C1334.32 0.242188 1436.52 93.5512 1436.52 239.07ZM1169.91 390.15C1272.12 390.15 1337.65 331.264 1337.65 239.07C1337.65 146.876 1273.23 89.1052 1171.03 89.1052H976.632V390.15H1169.91Z" fill="black"/>
<path d="M1460.96 618.969C1460.96 505.674 1539.84 442.358 1688.68 442.358H1855.32V403.473C1855.32 330.164 1803.11 285.732 1714.23 285.732C1634.26 285.732 1580.94 323.487 1569.83 381.257H1478.73C1492.07 270.178 1582.05 204.63 1718.68 204.63C1863.1 204.63 1946.4 276.839 1946.4 409.034V777.826H1867.53L1859.75 688.963C1824.21 740.056 1767.56 784.488 1669.8 784.488C1545.38 784.488 1460.96 722.287 1460.96 618.969ZM1676.46 706.733C1789.77 706.733 1855.32 641.201 1855.32 546.776V518.999H1679.81C1598.71 518.999 1553.16 548.992 1553.16 613.424C1553.16 668.963 1600.94 706.733 1676.46 706.733Z" fill="black"/>
<path d="M2091.92 211.292L2266.31 663.416L2435.16 211.292H2531.8L2270.76 873.351C2235.21 964.445 2214.1 1000 2134.12 1000H2025.27V916.683H2106.36C2158.57 916.683 2167.46 903.344 2188.56 850.036L2216.32 781.158L1995.28 211.293L2091.92 211.292Z" fill="black"/>
</g>
<defs>
<clipPath id="clip0_3844_146146">
<rect width="2531.8" height="1000" fill="white"/>
</clipPath>
</defs>
</svg>
